<svg width="652" height="358" viewBox="0 0 652 358" fill="none" xmlns="http://www.w3.org/2000/svg">
<g clip-path="url(#clip0)" filter="url(#filter0_d)">
<path d="M323.563 350C497.918 350 639.26 340.633 639.26 329.079C639.26 317.525 497.918 308.158 323.563 308.158C149.209 308.158 7.86607 317.525 7.86607 329.079C7.86607 340.633 149.209 350 323.563 350Z" fill="#F2F2F2"/>
<path d="M311.463 100.052C260.028 100.052 223.097 133.085 223.097 210.161C223.097 297.515 260.028 320.638 311.463 320.638C362.899 320.638 402.029 295.312 402.029 210.161C402.029 119.137 362.899 100.052 311.463 100.052ZM311.801 291.642C276.176 291.642 257.564 270.721 257.564 210.218C257.564 156.833 276.938 128.68 312.563 128.68C348.189 128.68 367.563 147.173 367.563 210.218C367.563 269.195 347.427 291.642 311.801 291.642Z" fill="#2F2E41"/>
<path d="M192.298 259.71H171.031V197.023C171.031 193.694 169.71 190.5 167.358 188.146C165.006 185.792 161.816 184.469 158.49 184.469H153.506C151.86 184.469 150.229 184.794 148.707 185.425C147.185 186.055 145.803 186.98 144.638 188.146C143.474 189.312 142.55 190.696 141.92 192.219C141.289 193.742 140.965 195.375 140.965 197.023V259.71H80.9794C79.7453 259.71 78.5323 259.391 77.4578 258.783C76.3834 258.176 75.4841 257.301 74.8471 256.243C74.2101 255.185 73.8572 253.98 73.8224 252.745C73.7877 251.51 74.0724 250.287 74.6489 249.195L138.137 128.912C138.928 127.413 139.408 125.768 139.547 124.078C139.686 122.387 139.482 120.686 138.946 119.077C138.41 117.468 137.554 115.985 136.429 114.716C135.305 113.447 133.935 112.42 132.403 111.695L128.655 109.924C125.745 108.548 122.418 108.345 119.363 109.356C116.307 110.368 113.757 112.516 112.24 115.357L34.8076 260.354C33.489 262.823 32.7992 265.579 32.7992 268.379C32.7992 270.615 33.2391 272.828 34.0937 274.894C34.9484 276.959 36.201 278.836 37.7802 280.416C39.3594 281.997 41.2341 283.251 43.2974 284.107C45.3607 284.962 47.5721 285.402 49.8054 285.402H140.965V325.042C140.965 327.018 141.354 328.975 142.109 330.801C142.865 332.626 143.972 334.285 145.368 335.682C146.764 337.08 148.421 338.188 150.245 338.945C152.069 339.701 154.024 340.09 155.998 340.09H155.998C157.972 340.09 159.927 339.701 161.751 338.945C163.575 338.188 165.232 337.08 166.628 335.682C168.024 334.285 169.131 332.626 169.887 330.801C170.642 328.975 171.031 327.018 171.031 325.042V285.402H192.298C195.701 285.402 198.965 284.049 201.372 281.64C203.779 279.231 205.131 275.963 205.131 272.556C205.131 269.149 203.779 265.882 201.372 263.473C198.966 261.064 195.701 259.71 192.298 259.71Z" fill="#6C63FF"/>
<path d="M586.094 259.71H564.828V197.023C564.828 193.694 563.506 190.5 561.154 188.146C558.802 185.792 555.612 184.469 552.286 184.469H547.303C545.656 184.469 544.025 184.794 542.504 185.425C540.982 186.055 539.599 186.98 538.435 188.146C537.27 189.312 536.346 190.696 535.716 192.219C535.086 193.742 534.761 195.375 534.761 197.023V259.71H474.776C473.542 259.71 472.329 259.391 471.254 258.783C470.18 258.176 469.281 257.301 468.644 256.243C468.007 255.185 467.654 253.98 467.619 252.745C467.584 251.51 467.869 250.287 468.445 249.195L531.933 128.912C532.725 127.413 533.205 125.768 533.344 124.078C533.483 122.387 533.278 120.686 532.742 119.077C532.206 117.468 531.35 115.985 530.226 114.716C529.101 113.447 527.732 112.42 526.2 111.695L522.452 109.924C519.542 108.548 516.215 108.345 513.159 109.356C510.103 110.368 507.553 112.516 506.036 115.357L428.604 260.354C427.286 262.823 426.596 265.579 426.596 268.379C426.596 272.894 428.387 277.224 431.577 280.416C434.766 283.609 439.092 285.402 443.602 285.402H534.761V325.042C534.761 329.033 536.345 332.86 539.164 335.682C541.984 338.505 545.807 340.09 549.795 340.09C553.782 340.09 557.605 338.505 560.425 335.682C563.244 332.86 564.828 329.033 564.828 325.042V285.402H586.094C589.498 285.402 592.762 284.049 595.169 281.64C597.575 279.231 598.927 275.963 598.927 272.556C598.927 269.149 597.575 265.882 595.169 263.473C592.762 261.064 589.498 259.71 586.094 259.71Z" fill="#6C63FF"/>
<path d="M198.164 252.37H176.898V189.683C176.898 188.034 176.573 186.401 175.943 184.878C175.313 183.355 174.389 181.971 173.225 180.805C172.06 179.64 170.677 178.715 169.156 178.084C167.634 177.453 166.003 177.128 164.356 177.128H159.373C156.047 177.128 152.857 178.451 150.505 180.805C148.153 183.16 146.831 186.353 146.831 189.683V252.37H86.846C85.612 252.37 84.3989 252.05 83.3244 251.443C82.25 250.835 81.3507 249.96 80.7137 248.902C80.0768 247.844 79.7238 246.639 79.6891 245.404C79.6543 244.17 79.939 242.947 80.5155 241.855L144.003 121.572C144.795 120.072 145.275 118.427 145.414 116.737C145.553 115.047 145.348 113.346 144.812 111.737C144.277 110.128 143.421 108.644 142.296 107.375C141.172 106.107 139.802 105.079 138.27 104.355L134.522 102.583C131.612 101.208 128.285 101.004 125.229 102.016C122.174 103.027 119.623 105.176 118.106 108.017L40.6742 253.013C39.3556 255.482 38.6658 258.239 38.6658 261.039V261.039C38.6658 265.553 40.4575 269.883 43.6468 273.076C46.8361 276.268 51.1617 278.062 55.672 278.062H146.831V317.701C146.831 319.677 147.22 321.634 147.976 323.46C148.731 325.286 149.839 326.945 151.235 328.342C152.631 329.739 154.288 330.848 156.112 331.604C157.936 332.36 159.89 332.75 161.865 332.75H161.865C165.852 332.75 169.675 331.164 172.495 328.342C175.314 325.52 176.898 321.692 176.898 317.701V278.062H198.164C199.85 278.062 201.518 277.73 203.075 277.084C204.632 276.438 206.047 275.492 207.239 274.299C208.43 273.107 209.376 271.69 210.021 270.132C210.666 268.573 210.998 266.903 210.998 265.216V265.216C210.998 263.529 210.666 261.858 210.021 260.3C209.376 258.741 208.43 257.325 207.239 256.132C206.047 254.939 204.632 253.993 203.075 253.348C201.518 252.702 199.85 252.37 198.164 252.37V252.37Z" stroke="#3F3D56" stroke-miterlimit="10"/>
<path d="M597.094 252.37H575.828V189.683C575.828 186.353 574.506 183.16 572.154 180.805C569.802 178.451 566.612 177.128 563.286 177.128H558.303C556.656 177.128 555.025 177.453 553.503 178.084C551.982 178.715 550.599 179.64 549.435 180.805C548.27 181.971 547.346 183.355 546.716 184.878C546.086 186.401 545.761 188.034 545.761 189.683V252.37H485.776C484.542 252.37 483.329 252.05 482.254 251.443C481.18 250.835 480.28 249.96 479.643 248.902C479.006 247.844 478.654 246.639 478.619 245.404C478.584 244.17 478.869 242.947 479.445 241.855L542.933 121.572C543.725 120.072 544.205 118.427 544.344 116.737C544.483 115.047 544.278 113.346 543.742 111.737C543.206 110.128 542.35 108.644 541.226 107.375C540.101 106.107 538.732 105.079 537.2 104.355L533.452 102.583C530.542 101.208 527.215 101.004 524.159 102.016C521.103 103.027 518.553 105.176 517.036 108.017L439.604 253.013C438.285 255.482 437.596 258.239 437.596 261.039C437.596 265.553 439.387 269.883 442.577 273.076C445.766 276.268 450.091 278.062 454.602 278.062H545.761V317.701C545.761 321.692 547.345 325.52 550.164 328.342C552.984 331.164 556.807 332.75 560.794 332.75V332.75C564.781 332.75 568.605 331.164 571.424 328.342C574.244 325.52 575.828 321.692 575.828 317.701V278.062H597.094C598.779 278.062 600.448 277.73 602.005 277.084C603.562 276.438 604.977 275.492 606.168 274.299C607.36 273.107 608.305 271.69 608.95 270.132C609.595 268.573 609.927 266.903 609.927 265.216V265.216C609.927 261.809 608.575 258.541 606.169 256.132C603.762 253.723 600.498 252.37 597.094 252.37V252.37Z" stroke="#3F3D56" stroke-miterlimit="10"/>
<path d="M323.197 93.4453C271.761 93.4453 234.831 126.478 234.831 203.555C234.831 290.908 271.761 314.031 323.197 314.031C374.632 314.031 413.763 288.706 413.763 203.555C413.762 112.531 374.632 93.4453 323.197 93.4453ZM323.535 285.036C287.909 285.036 269.297 264.114 269.297 203.611C269.297 150.226 288.671 122.074 324.297 122.074C359.922 122.074 379.296 140.566 379.296 203.611C379.296 262.589 359.16 285.036 323.535 285.036V285.036Z" stroke="#3F3D56" stroke-miterlimit="10"/>
<path d="M281.968 18.6622C286.232 18.6622 289.689 15.2019 289.689 10.9334C289.689 6.6649 286.232 3.20459 281.968 3.20459C277.703 3.20459 274.247 6.6649 274.247 10.9334C274.247 15.2019 277.703 18.6622 281.968 18.6622Z" fill="#2F2E41"/>
<path d="M300.799 56.1753C312.76 56.1753 322.456 43.6 322.456 28.0876C322.456 12.5753 312.76 0 300.799 0C288.839 0 279.143 12.5753 279.143 28.0876C279.143 43.6 288.839 56.1753 300.799 56.1753Z" fill="#2F2E41"/>
<path opacity="0.1" d="M300.799 47.6924C289.951 47.6924 280.965 37.346 279.389 23.8462C279.224 25.254 279.142 26.6702 279.143 28.0876C279.143 43.6 288.839 56.1752 300.799 56.1752C312.76 56.1752 322.456 43.6 322.456 28.0876C322.456 26.6702 322.374 25.254 322.21 23.8462C320.634 37.346 311.648 47.6924 300.799 47.6924Z" fill="black"/>
<path d="M344.868 110.343C344.403 112.257 342.398 113.789 340.177 114.859C335.508 117.11 329.748 117.781 324.162 118.007C322.737 118.094 321.307 118.067 319.886 117.928C317.132 117.661 314.549 116.473 312.554 114.554C312.412 114.461 312.295 114.334 312.216 114.184C312.136 114.033 312.095 113.865 312.098 113.695C312.1 113.525 312.146 113.358 312.23 113.211C312.315 113.063 312.435 112.939 312.58 112.85C315.555 109.58 320.518 107.575 325.517 106.131C329.308 105.036 335.92 102.201 340.054 102.583C344.059 102.954 345.456 107.928 344.868 110.343Z" fill="#3F3D56"/>
<path opacity="0.1" d="M344.868 110.343C344.403 112.257 342.398 113.789 340.177 114.859C335.508 117.11 329.748 117.781 324.162 118.007C322.737 118.094 321.307 118.067 319.886 117.928C317.132 117.661 314.549 116.473 312.554 114.554C312.412 114.461 312.295 114.334 312.216 114.184C312.136 114.033 312.095 113.865 312.098 113.695C312.1 113.525 312.146 113.358 312.23 113.211C312.315 113.063 312.435 112.939 312.58 112.85C315.555 109.58 320.518 107.575 325.517 106.131C329.308 105.036 335.92 102.201 340.054 102.583C344.059 102.954 345.456 107.928 344.868 110.343Z" fill="black"/>
<path d="M285.5 96.045C284.075 98.8412 283.817 102.089 284.783 105.076C285.765 108.04 287.604 110.645 290.067 112.563C296.108 117.41 304.423 118.077 312.166 118.01C318.951 117.951 325.727 117.486 332.457 116.618C334.712 116.418 336.929 115.903 339.041 115.087C341.568 113.993 343.789 111.986 344.689 109.381C345.588 106.776 344.95 103.586 342.813 101.848C340.936 100.32 338.347 100.11 335.932 99.9649L322.114 99.1337C323.48 97.7508 325.297 96.9687 326.96 95.9633C329.165 94.6295 330.63 92.3901 332.234 90.3711C334.705 87.415 337.393 84.6482 340.277 82.0936C340.726 84.6759 342.358 86.7963 344.279 88.5781C346.2 90.3598 348.414 91.7942 350.41 93.4906C355.245 97.5993 358.726 103.176 363.811 106.97C367.309 106.05 370.579 104.416 373.416 102.17L371.439 98.5868C371.275 98.218 371.018 97.8977 370.695 97.6565C370.135 97.3121 369.414 97.4896 368.764 97.3921C367.028 97.1315 366.27 95.1252 365.589 93.5057C363.719 89.0595 360.138 85.6098 357.08 81.8813C354.823 79.1289 352.82 76.1767 351.098 73.0611C350.07 71.203 349.13 69.2683 347.736 67.6675C346.342 66.0667 344.388 64.8081 342.267 64.8036C340.392 64.7996 338.663 65.7523 337.051 66.7105C332.142 69.6293 327.419 72.8503 322.909 76.355C320.549 78.1892 318.203 80.1271 315.435 81.2519C314.269 81.7253 313.04 82.049 311.922 82.6251C309.963 83.6342 308.476 85.3415 306.876 86.8571C301.168 92.2626 293.353 95.7649 285.5 96.045Z" fill="#3F3D56"/>
<path d="M314.392 57.5702C314.328 59.2226 313.977 60.8511 313.355 62.3828C313.039 63.1468 312.57 63.8375 311.976 64.4119C311.382 64.9863 310.676 65.432 309.903 65.7213C308.804 66.0159 307.653 66.0533 306.538 65.8306C305.565 65.729 304.628 65.4094 303.796 64.8956C302.5 64.004 301.854 62.413 301.619 60.8559C301.383 59.3007 301.489 57.7116 301.338 56.1451C301.191 54.8798 300.951 53.6272 300.619 52.3976C300.517 51.9885 300.413 51.5814 300.312 51.1742C300.212 50.767 300.114 50.3598 300.024 49.9527C299.941 49.57 299.864 49.1854 299.798 48.799C299.743 48.4729 299.694 48.1449 299.658 47.815C299.625 46.837 299.463 45.8677 299.174 44.9327C298.904 44.3263 298.565 43.7527 298.165 43.2229C297.994 42.9779 297.828 42.7328 297.675 42.4783C297.234 41.817 297.029 41.0258 297.093 40.2332C297.111 40.1107 297.141 39.9901 297.182 39.8732C297.197 39.8279 297.214 39.7827 297.233 39.7393C297.402 39.6933 297.558 39.6065 297.686 39.4866C297.814 39.3667 297.912 39.2173 297.969 39.0512C298.034 38.6946 298.003 38.3272 297.881 37.9862C297.74 37.5097 297.547 37.0501 297.306 36.6157C297.148 36.3292 296.611 35.8127 296.608 35.4847C296.6 34.8249 297.888 34.2933 298.41 34.0331C300.002 33.235 301.778 32.8746 303.555 32.9888C304.694 33.0661 305.929 33.4167 306.558 34.3725C307.123 35.2339 307.048 36.3499 307.289 37.3509C307.314 37.4964 307.376 37.6332 307.468 37.7486C307.591 37.8607 307.745 37.9319 307.91 37.9522C308.189 38.0078 308.475 38.0192 308.758 37.9862H308.76C308.834 37.9802 308.909 37.9695 308.982 37.9541C309.422 37.8728 309.838 37.6931 310.198 37.4282C310.432 37.366 310.667 37.3151 310.905 37.2755C310.914 37.2745 310.924 37.2726 310.933 37.2698C311.876 40.2501 311.999 43.4453 312.771 46.4803C313.153 47.9902 313.701 49.4813 313.778 51.0346C313.784 51.1025 313.786 51.1722 313.788 51.242C313.799 51.7415 313.76 52.2449 313.78 52.7425C313.788 52.9666 313.813 53.1898 313.856 53.4098C313.94 53.7638 314.045 54.1125 314.17 54.4542L314.176 54.4711C314.212 54.5805 314.245 54.6917 314.274 54.8029C314.294 54.884 314.313 54.9631 314.328 55.0442L314.33 55.0498C314.47 55.8828 314.491 56.7314 314.392 57.5702Z" fill="#FBBEBE"/>
<path d="M301.176 38.0785C307.312 38.0785 312.287 33.099 312.287 26.9565C312.287 20.8141 307.312 15.8346 301.176 15.8346C295.04 15.8346 290.065 20.8141 290.065 26.9565C290.065 33.099 295.04 38.0785 301.176 38.0785Z" fill="#FBBEBE"/>
<path d="M371.717 87.5543C371.395 84.5199 370.317 81.6149 368.583 79.1054C368.871 80.8208 369.16 82.5356 369.449 84.2498C369.089 84.354 368.707 84.3508 368.349 84.2406C367.991 84.1304 367.673 83.9181 367.434 83.6296C366.966 83.0448 366.608 82.3799 366.378 81.6672C365.115 78.5304 363.465 75.5647 361.465 72.8394C354.391 72.2494 347.399 69.3143 341.179 65.8929C334.957 62.4733 329.134 58.3733 322.995 54.8086C321.93 54.1646 320.822 53.5977 319.677 53.112C317.756 52.341 315.599 51.9414 313.778 51.0347C313.656 50.9744 313.534 50.9103 313.413 50.8443C313.002 50.6203 312.612 50.3584 312.249 50.062C312.053 49.9026 311.867 49.7314 311.692 49.5492C310.783 48.4911 310.063 47.2848 309.562 45.9827C308.585 43.8186 308.236 41.2078 307.261 39.0437C307.709 38.6243 308.213 38.2685 308.758 37.9862H308.76C308.839 37.9447 308.918 37.9051 308.999 37.8674C309.385 37.6855 309.786 37.5385 310.198 37.4282C310.432 37.366 310.667 37.3151 310.905 37.2755C310.914 37.2745 310.924 37.2727 310.933 37.2699C312.033 37.0904 313.161 37.1796 314.219 37.53C315.767 38.0541 317.072 39.1003 318.373 40.0899C320.487 41.5808 322.515 43.1907 324.447 44.912C325.52 45.9412 326.499 47.0722 327.654 48.0073C328.613 48.7484 329.624 49.4193 330.68 50.0149C336.927 53.7398 343.174 57.464 349.421 61.1877C351.536 62.4488 353.653 63.7099 355.721 65.0446C358.862 67.0729 361.89 69.2709 364.916 71.467C366.7 72.7602 368.483 74.054 370.265 75.3484C370.849 75.7218 371.363 76.1967 371.781 76.7509C372.15 77.3801 372.379 78.0816 372.453 78.8075C372.9 81.7404 372.648 84.7377 371.717 87.5543Z" fill="#FBBEBE"/>
<path d="M317.147 65.9343C316.398 69.2992 313.001 71.3332 311.225 74.289C309.018 77.9573 309.918 82.2214 310.747 86.4232C309.232 87.7296 307.718 89.0359 306.202 90.3423C305.366 91.0605 304.53 91.7825 303.63 92.4177C302.317 93.2981 300.946 94.0867 299.525 94.7779C298.184 95.4678 296.843 96.1584 295.502 96.8495C294.256 97.5511 292.935 98.1113 291.564 98.5197C288.922 99.1984 286.116 98.7233 283.502 97.9372C283.194 97.8563 282.898 97.7353 282.621 97.5772C282.458 97.4799 282.316 97.3511 282.203 97.1983C281.945 96.7358 281.852 96.1996 281.938 95.677C282.203 91.2735 283.278 86.9623 284.35 82.6832C284.923 80.116 285.693 77.597 286.653 75.1485C287.595 73.0506 288.678 71.0189 289.894 69.0673C291.236 66.6119 292.826 64.3006 294.64 62.1698C295.522 61.3497 296.265 60.3908 296.839 59.3309C297.508 57.804 297.25 56.0527 297.385 54.3901C297.489 53.1409 297.82 51.9213 298.363 50.7915V50.7896C298.653 50.181 299.002 49.6027 299.406 49.0629C299.589 49.4889 299.771 49.9143 299.954 50.3391C300.074 50.6181 300.194 50.8964 300.312 51.1742C300.466 51.5323 300.619 51.8893 300.771 52.2449C301.21 53.2666 301.648 54.2877 302.086 55.3081C302.559 56.5934 303.232 57.7954 304.082 58.8691C304.47 59.4189 304.994 59.8584 305.603 60.1449C306.212 60.4313 306.884 60.5548 307.555 60.5034C308.226 60.4519 308.872 60.2272 309.43 59.8512C309.988 59.4752 310.439 58.9608 310.739 58.3582C311.372 57.2333 311.83 56.0187 312.099 54.7558C312.471 53.2182 312.522 51.6204 312.249 50.062C311.795 47.061 310.521 43.9958 309.594 41.2078C309.217 40.2782 308.999 39.2917 308.948 38.2897C308.95 38.1771 308.961 38.0648 308.982 37.9541C308.988 37.9259 308.993 37.8957 308.999 37.8674C309.385 37.6855 309.786 37.5385 310.198 37.4282C310.432 37.366 310.667 37.3151 310.905 37.2755C311.72 41.6941 312.537 46.1128 313.355 50.5314C313.374 50.635 313.394 50.7387 313.413 50.8443C313.53 51.4777 313.649 52.1111 313.78 52.7426C313.899 53.3156 314.027 53.8868 314.17 54.4542L314.176 54.4712C314.225 54.6635 314.276 54.8538 314.328 55.0442L314.33 55.0499C314.475 55.5702 314.637 56.0867 314.82 56.5956C315.927 59.6627 317.857 62.7504 317.147 65.9343Z" fill="#6C63FF"/>
<path d="M362.239 113.221C362.204 113.869 362.33 114.516 362.604 115.104C363.3 116.377 364.968 116.666 366.412 116.785C374.846 117.479 383.331 117.22 391.707 116.013C392.162 115.982 392.602 115.845 392.995 115.613C394.186 114.777 393.452 112.741 392.151 112.089C390.851 111.436 389.308 111.594 387.881 111.311C386.463 110.954 385.113 110.368 383.884 109.576C380.991 107.912 378.139 106.177 375.33 104.371C373.658 103.296 371.684 102.149 369.8 102.786C364.698 104.514 362.206 107.712 362.239 113.221Z" fill="#3F3D56"/>
<path d="M300.067 49.717V49.7189C300.054 49.7981 300.041 49.8754 300.024 49.9527C300.003 50.0809 299.978 50.2109 299.954 50.3391C299.72 51.5361 299.434 52.7275 299.105 53.9113C298.201 57.1819 296.99 60.3997 295.788 63.5704C292.564 72.0721 289.34 80.5744 286.114 89.0774C285.301 91.2188 284.489 93.3621 283.565 95.4602C283.256 96.1596 282.937 96.8646 282.621 97.5772C281.487 100.128 280.399 102.761 280.037 105.476C279.7 107.262 279.661 109.092 279.922 110.891C280.284 112.671 281.363 114.409 283.052 115.067C283.877 115.389 285.058 115.821 284.832 116.679C284.71 117.15 284.175 117.38 283.694 117.459C283.06 117.56 282.412 117.52 281.795 117.343C281.178 117.165 280.607 116.853 280.124 116.43C279.222 115.629 278.529 114.383 277.329 114.249C276.499 114.158 275.734 114.656 274.973 115.005C271.87 116.424 268.254 115.431 264.994 114.422C265.251 113.101 266.576 112.23 267.893 111.966C269.209 111.7 270.571 111.889 271.913 111.853C272.343 111.876 272.77 111.766 273.135 111.538C273.463 111.237 273.693 110.844 273.795 110.411C274.659 107.845 275.303 105.21 275.717 102.535C276.15 99.7394 276.331 96.9004 276.949 94.1388C277.429 91.9842 278.171 89.8974 278.808 87.7823C280.038 83.4275 281.049 79.0134 281.836 74.5567C282.233 72.7051 282.518 70.831 282.689 68.9448C282.796 67.3802 282.745 65.808 282.896 64.249C283.149 62.2208 283.572 60.2175 284.16 58.2602C284.736 56.1244 285.311 53.9898 285.886 51.8566C286.74 48.6991 287.655 45.419 289.817 42.9647C290.568 42.1006 291.488 41.4001 292.52 40.9066C293.552 40.4131 294.675 40.137 295.818 40.0956C296.247 40.0951 296.675 40.1412 297.093 40.2332C297.163 40.2501 297.233 40.2671 297.302 40.286C297.759 40.4054 298.197 40.5868 298.604 40.8251C299.27 40.401 299.609 40.5499 300.052 41.204C300.44 41.8963 300.623 42.6849 300.579 43.4774C300.616 45.5692 300.445 47.6594 300.067 49.717Z" fill="#FBBEBE"/>
<path d="M300.799 52.2165L300.771 52.2448L300.619 52.3975L299.105 53.9112L298.363 50.7914L295.818 40.0955C296.247 40.095 296.675 40.1411 297.093 40.2331C297.111 40.1106 297.141 39.99 297.182 39.873L297.302 40.2859L298.165 43.2228L299.798 48.7989L300.067 49.7169V49.7188L300.799 52.2165Z" fill="#6C63FF"/>
<path d="M310.407 18.0939C310.406 19.0843 310.21 20.0647 309.83 20.9791C309.45 21.8936 308.894 22.7241 308.193 23.4232C307.939 23.6776 307.667 23.9132 307.379 24.1279C306.079 25.1085 304.496 25.6393 302.869 25.6401H293.834C291.838 25.637 289.924 24.841 288.514 23.4268C287.103 22.0126 286.311 20.0959 286.311 18.0976C286.311 16.0992 287.103 14.1825 288.514 12.7683C289.924 11.3542 291.838 10.5581 293.834 10.5551H302.869C304.865 10.5603 306.779 11.356 308.191 12.7684C309.603 14.1809 310.4 16.0954 310.407 18.0939Z" fill="#2F2E41"/>
<path d="M318.878 18.6622C323.142 18.6622 326.599 15.2019 326.599 10.9334C326.599 6.6649 323.142 3.20459 318.878 3.20459C314.614 3.20459 311.157 6.6649 311.157 10.9334C311.157 15.2019 314.614 18.6622 318.878 18.6622Z" fill="#2F2E41"/>
<path opacity="0.1" d="M318.69 3.20459C318.595 3.20459 318.501 3.20835 318.407 3.21174C320.405 3.28442 322.296 4.12977 323.683 5.56992C325.071 7.01007 325.846 8.93275 325.846 10.9334C325.846 12.9341 325.071 14.8567 323.683 16.2969C322.296 17.737 320.405 18.5824 318.407 18.6551C318.501 18.6585 318.595 18.6622 318.69 18.6622C320.737 18.6622 322.701 17.8479 324.149 16.3985C325.597 14.9491 326.411 12.9832 326.411 10.9334C326.411 8.8836 325.597 6.91774 324.149 5.46831C322.701 4.01888 320.737 3.20459 318.69 3.20459Z" fill="black"/>
<path opacity="0.1" d="M281.968 3.20459C282.062 3.20459 282.156 3.20835 282.25 3.21174C280.253 3.28442 278.361 4.12977 276.974 5.56992C275.587 7.01007 274.812 8.93275 274.812 10.9334C274.812 12.9341 275.587 14.8567 276.974 16.2969C278.361 17.737 280.253 18.5824 282.25 18.6551C282.156 18.6585 282.062 18.6622 281.968 18.6622C279.921 18.6604 277.959 17.8453 276.512 16.3961C275.066 14.9469 274.253 12.982 274.253 10.9334C274.253 8.88478 275.066 6.91995 276.512 5.47071C277.959 4.02148 279.921 3.20639 281.968 3.20459Z" fill="black"/>
<path opacity="0.1" d="M307.379 24.1278C306.079 25.1084 304.496 25.6392 302.869 25.64H293.834C292.207 25.6392 290.624 25.1084 289.324 24.1278H307.379Z" fill="black"/>
<path d="M365.721 80.1303C365.721 80.1303 367.668 85.7446 369.449 84.2497L368.029 76.9111L365.721 80.1303Z" fill="#FBBEBE"/>
<path d="M602.586 251.343C604.399 252.003 606.34 252.232 608.257 252.013C610.173 251.793 612.013 251.131 613.63 250.079C615.247 249.026 616.598 247.612 617.577 245.948C618.555 244.284 619.134 242.415 619.267 240.489C619.401 238.562 619.086 236.631 618.347 234.848C617.608 233.064 616.465 231.477 615.008 230.211C613.552 228.945 611.821 228.034 609.953 227.552C608.086 227.07 606.131 227.028 604.245 227.431L604.556 233.848L601.523 228.348C598.546 229.748 596.247 232.274 595.129 235.371C594.732 236.456 594.491 237.591 594.413 238.744C594.221 241.448 594.916 244.141 596.39 246.414C597.865 248.688 600.04 250.418 602.586 251.343Z" fill="#57B894"/>
<path d="M617.594 325.774C616.523 320.317 621.163 315.478 625.746 312.333C630.329 309.188 635.684 306.098 637.247 300.761C639.495 293.09 632.801 286.066 627.591 280.008C623.725 275.512 620.406 270.574 617.702 265.296C616.618 263.18 615.621 260.968 615.336 258.607C614.925 255.207 616.017 251.823 617.116 248.58C620.778 237.776 624.694 227.062 628.863 216.439" stroke="#3F3D56" stroke-miterlimit="10"/>
<path d="M603.099 249.691C604.912 250.35 606.853 250.58 608.77 250.36C610.686 250.141 612.526 249.479 614.143 248.427C615.76 247.374 617.111 245.96 618.09 244.296C619.068 242.632 619.647 240.763 619.78 238.836C619.914 236.91 619.599 234.979 618.86 233.195C618.121 231.412 616.978 229.824 615.521 228.558C614.065 227.292 612.334 226.382 610.466 225.9C608.598 225.417 606.644 225.376 604.758 225.778L605.069 232.196L602.036 226.696C599.059 228.096 596.76 230.622 595.642 233.719C595.245 234.804 595.004 235.939 594.926 237.092C594.734 239.796 595.429 242.488 596.903 244.762C598.378 247.035 600.553 248.766 603.099 249.691V249.691Z" stroke="#3F3D56" stroke-miterlimit="10"/>
<path d="M616.072 214.223C616.783 212.258 617.977 210.504 619.544 209.122C621.111 207.74 623 206.776 625.037 206.317L626.062 212.418L627.964 206.01C630.604 206.049 633.163 206.927 635.272 208.517C637.381 210.107 638.931 212.327 639.697 214.856C640.464 217.385 640.407 220.093 639.537 222.588C638.666 225.083 637.025 227.236 634.852 228.737C632.679 230.238 630.085 231.009 627.446 230.938C624.807 230.867 622.258 229.959 620.168 228.344C618.078 226.728 616.555 224.49 615.819 221.952C615.083 219.414 615.171 216.708 616.072 214.223H616.072Z" fill="#57B894"/>
<path d="M616.756 212.02C617.467 210.055 618.661 208.301 620.228 206.919C621.795 205.537 623.684 204.573 625.721 204.114L626.746 210.215L628.648 203.807C631.288 203.846 633.847 204.724 635.956 206.314C638.065 207.904 639.615 210.124 640.381 212.653C641.148 215.182 641.091 217.89 640.22 220.385C639.35 222.88 637.709 225.033 635.536 226.534C633.363 228.035 630.769 228.806 628.13 228.735C625.491 228.664 622.942 227.756 620.852 226.141C618.762 224.525 617.239 222.287 616.503 219.749C615.767 217.211 615.855 214.505 616.756 212.02H616.756Z" stroke="#3F3D56" stroke-miterlimit="10"/>
<path d="M625.404 280.131C628.279 281.175 631.438 281.124 634.277 279.987C637.117 278.849 639.439 276.706 640.802 273.965C642.164 271.224 642.471 268.077 641.664 265.124C640.858 262.171 638.994 259.618 636.427 257.952L634.966 262.876L633.93 256.703C633.92 256.698 633.91 256.694 633.899 256.691C632.361 256.132 630.728 255.881 629.093 255.953C627.459 256.026 625.854 256.42 624.372 257.113C622.89 257.807 621.558 258.786 620.454 259.994C619.35 261.203 618.494 262.617 617.936 264.157C617.378 265.697 617.129 267.332 617.202 268.968C617.275 270.604 617.67 272.21 618.364 273.693C619.057 275.177 620.036 276.509 621.244 277.614C622.452 278.718 623.866 279.574 625.404 280.131H625.404Z" fill="#57B894"/>
<path d="M625.997 277.9C628.872 278.944 632.03 278.893 634.87 277.755C637.71 276.618 640.032 274.475 641.394 271.734C642.757 268.993 643.064 265.846 642.257 262.892C641.45 259.939 639.586 257.387 637.02 255.721L635.559 260.645L634.523 254.472C634.513 254.467 634.502 254.463 634.491 254.46C632.954 253.9 631.321 253.65 629.686 253.722C628.051 253.795 626.447 254.189 624.965 254.882C623.482 255.575 622.151 256.554 621.047 257.763C619.942 258.972 619.087 260.386 618.529 261.926C617.971 263.466 617.721 265.1 617.795 266.736C617.868 268.373 618.263 269.978 618.956 271.462C619.65 272.945 620.628 274.278 621.836 275.382C623.045 276.487 624.458 277.343 625.997 277.9H625.997Z" stroke="#3F3D56" stroke-miterlimit="10"/>
<path d="M612.437 300.837C612.931 303.653 614.378 306.213 616.534 308.088C618.69 309.963 621.425 311.039 624.279 311.135C627.134 311.231 629.934 310.342 632.212 308.616C634.489 306.891 636.104 304.434 636.787 301.658C637.469 298.882 637.177 295.955 635.96 293.369C634.743 290.783 632.674 288.694 630.101 287.453C627.528 286.213 624.607 285.895 621.828 286.554C619.049 287.214 616.58 288.809 614.837 291.074L620.387 299.435L612.804 294.997C612.216 296.886 612.09 298.889 612.437 300.837Z" fill="#57B894"/>
<path d="M612.95 299.185C613.444 302.001 614.891 304.561 617.047 306.436C619.203 308.311 621.938 309.386 624.792 309.483C627.646 309.579 630.447 308.69 632.724 306.964C635.002 305.239 636.617 302.782 637.3 300.006C637.982 297.23 637.69 294.303 636.473 291.717C635.256 289.131 633.187 287.042 630.614 285.801C628.041 284.56 625.12 284.243 622.341 284.902C619.562 285.561 617.093 287.157 615.35 289.422L620.9 297.783L613.317 293.345C612.729 295.234 612.603 297.237 612.95 299.185V299.185Z" stroke="#3F3D56" stroke-miterlimit="10"/>
<path d="M5.39077 281.716C6.58192 282.149 7.85736 282.3 9.11658 282.156C10.3758 282.012 11.5844 281.577 12.647 280.885C13.7097 280.194 14.5973 279.265 15.2401 278.171C15.8829 277.078 16.2631 275.85 16.3509 274.584C16.4387 273.319 16.2317 272.05 15.746 270.878C15.2604 269.706 14.5095 268.663 13.5525 267.831C12.5955 267 11.4586 266.402 10.2314 266.085C9.00416 265.768 7.72016 265.74 6.4806 266.005L6.68544 270.221L4.69258 266.608C2.73671 267.528 1.22572 269.187 0.49165 271.222C0.230952 271.935 0.0724668 272.681 0.0209228 273.438C-0.104867 275.214 0.351298 276.984 1.32029 278.477C2.28928 279.971 3.71829 281.108 5.39077 281.716Z" fill="#57B894"/>
<path d="M15.2515 330.619C14.548 327.033 17.5963 323.854 20.6073 321.787C23.6184 319.721 27.1366 317.691 28.164 314.184C29.6405 309.145 25.2424 304.529 21.8192 300.549C19.2796 297.595 17.0986 294.351 15.322 290.883C14.5496 289.521 14.0235 288.033 13.7679 286.488C13.498 284.254 14.215 282.031 14.9373 279.9C17.3436 272.802 19.9163 265.763 22.6554 258.783" stroke="#3F3D56" stroke-miterlimit="10"/>
<path d="M5.7278 280.63C6.91894 281.064 8.19439 281.214 9.4536 281.07C10.7128 280.926 11.9214 280.491 12.984 279.8C14.0467 279.108 14.9344 278.179 15.5771 277.086C16.2199 275.992 16.6001 274.764 16.6879 273.499C16.7757 272.233 16.5687 270.964 16.083 269.792C15.5974 268.621 14.8465 267.578 13.8895 266.746C12.9326 265.914 11.7956 265.316 10.5684 264.999C9.34119 264.682 8.05719 264.655 6.81762 264.919L7.02247 269.136L5.02961 265.522C3.07373 266.442 1.56274 268.102 0.828671 270.136C0.567976 270.849 0.409493 271.595 0.357946 272.352C0.232148 274.129 0.68831 275.898 1.6573 277.392C2.6263 278.886 4.05531 280.022 5.7278 280.63V280.63Z" stroke="#3F3D56" stroke-miterlimit="10"/>
<path d="M14.2512 257.327C14.7187 256.036 15.5032 254.884 16.5326 253.976C17.562 253.068 18.8031 252.434 20.1415 252.133L20.8153 256.141L22.0645 251.931C23.799 251.957 25.4805 252.534 26.8661 253.579C28.2517 254.623 29.2699 256.082 29.7735 257.743C30.2771 259.405 30.2401 261.184 29.6679 262.823C29.0957 264.462 28.0179 265.877 26.5901 266.863C25.1623 267.849 23.4583 268.356 21.7242 268.309C19.9902 268.263 18.3157 267.666 16.9426 266.605C15.5695 265.544 14.5689 264.073 14.0851 262.406C13.6014 260.738 13.6595 258.96 14.2512 257.327Z" fill="#57B894"/>
<path d="M14.7006 255.88C15.168 254.589 15.9526 253.436 16.982 252.529C18.0114 251.621 19.2524 250.987 20.5909 250.685L21.2647 254.694L22.5139 250.484C24.2484 250.51 25.9299 251.086 27.3155 252.131C28.7011 253.176 29.7192 254.634 30.2228 256.296C30.7264 257.958 30.6895 259.736 30.1173 261.376C29.5451 263.015 28.4673 264.43 27.0394 265.416C25.6116 266.402 23.9077 266.908 22.1736 266.862C20.4395 266.815 18.7651 266.218 17.392 265.157C16.0189 264.096 15.0183 262.626 14.5345 260.958C14.0507 259.291 14.1089 257.512 14.7006 255.88V255.88Z" stroke="#3F3D56" stroke-miterlimit="10"/>
<path d="M20.3827 300.63C22.2717 301.316 24.3469 301.282 26.2126 300.535C28.0783 299.788 29.6041 298.38 30.4991 296.579C31.3942 294.778 31.596 292.71 31.066 290.77C30.536 288.83 29.3112 287.152 27.6253 286.058L26.6653 289.293L25.9847 285.237C25.978 285.234 25.971 285.232 25.9639 285.23C24.9534 284.862 23.8805 284.697 22.8064 284.744C21.7323 284.792 20.678 285.051 19.7039 285.506C18.7298 285.962 17.8549 286.605 17.1292 287.399C16.4035 288.193 15.8413 289.123 15.4747 290.134C15.108 291.146 14.9441 292.22 14.9924 293.295C15.0406 294.371 15.3001 295.426 15.7559 296.4C16.2117 297.375 16.8549 298.25 17.6488 298.976C18.4427 299.702 19.3717 300.264 20.3827 300.63Z" fill="#57B894"/>
<path d="M20.7721 299.164C22.6611 299.85 24.7362 299.816 26.6019 299.069C28.4676 298.322 29.9934 296.914 30.8885 295.113C31.7836 293.312 31.9854 291.244 31.4553 289.304C30.9253 287.364 29.7006 285.686 28.0146 284.592L27.0547 287.827L26.3741 283.771C26.3673 283.768 26.3604 283.766 26.3532 283.763C25.343 283.397 24.2705 283.233 23.197 283.281C22.1234 283.329 21.0698 283.588 20.0964 284.044C18.1304 284.964 16.6101 286.628 15.87 288.67C15.1299 290.713 15.2306 292.966 16.1499 294.934C17.0692 296.902 18.7318 298.423 20.7721 299.164V299.164Z" stroke="#3F3D56" stroke-miterlimit="10"/>
<path d="M11.863 314.234C12.1878 316.084 13.1382 317.766 14.5549 318.998C15.9715 320.23 17.7682 320.937 19.6436 321C21.519 321.063 23.3591 320.479 24.8553 319.345C26.3515 318.212 27.4128 316.598 27.8612 314.774C28.3096 312.95 28.1179 311.027 27.3181 309.328C26.5183 307.628 25.1592 306.256 23.4686 305.441C21.7781 304.626 19.8589 304.417 18.033 304.85C16.207 305.283 14.5854 306.332 13.44 307.82L17.0861 313.313L12.1042 310.397C11.7179 311.638 11.6352 312.954 11.863 314.234Z" fill="#57B894"/>
<path d="M12.2001 313.149C12.5249 314.999 13.4753 316.681 14.8919 317.913C16.3085 319.144 18.1052 319.851 19.9806 319.914C21.856 319.978 23.6962 319.393 25.1924 318.26C26.6886 317.126 27.7498 315.512 28.1982 313.688C28.6466 311.864 28.4549 309.941 27.6551 308.242C26.8553 306.543 25.4962 305.171 23.8056 304.355C22.1151 303.54 20.1959 303.332 18.37 303.765C16.5441 304.198 14.9224 305.246 13.777 306.734L17.4232 312.227L12.4412 309.312C12.0549 310.553 11.9722 311.869 12.2001 313.149V313.149Z" stroke="#3F3D56" stroke-miterlimit="10"/>
<path d="M287.836 204.355C293.455 204.355 298.01 198.454 298.01 191.175C298.01 183.896 293.455 177.995 287.836 177.995C282.217 177.995 277.661 183.896 277.661 191.175C277.661 198.454 282.217 204.355 287.836 204.355Z" fill="#2F2E41"/>
<path d="M343.195 204.654C348.814 204.654 353.369 198.754 353.369 191.475C353.369 184.196 348.814 178.295 343.195 178.295C337.576 178.295 333.021 184.196 333.021 191.475C333.021 198.754 337.576 204.654 343.195 204.654Z" fill="#2F2E41"/>
<path d="M335.415 230.415C335.415 236.37 327.108 241.198 316.862 241.198C306.616 241.198 298.309 236.37 298.309 230.415C298.309 225.257 304.539 220.943 312.864 219.889C314.189 219.714 315.525 219.628 316.862 219.631C319.102 219.624 321.336 219.865 323.523 220.35C330.477 221.902 335.415 225.826 335.415 230.415Z" fill="#2F2E41"/>
<path d="M290.23 201.359C295.849 201.359 300.404 195.459 300.404 188.18C300.404 180.901 295.849 175 290.23 175C284.611 175 280.055 180.901 280.055 188.18C280.055 195.459 284.611 201.359 290.23 201.359Z" stroke="#3F3D56" stroke-miterlimit="10"/>
<path d="M345.589 201.659C351.208 201.659 355.763 195.758 355.763 188.479C355.763 181.2 351.208 175.3 345.589 175.3C339.97 175.3 335.415 181.2 335.415 188.479C335.415 195.758 339.97 201.659 345.589 201.659Z" stroke="#3F3D56" stroke-miterlimit="10"/>
<path d="M319.256 238.203C329.502 238.203 337.809 233.375 337.809 227.419C337.809 221.464 329.502 216.636 319.256 216.636C309.009 216.636 300.703 221.464 300.703 227.419C300.703 233.375 309.009 238.203 319.256 238.203Z" stroke="#3F3D56" stroke-miterlimit="10"/>
<path d="M323.744 221.249C323.749 222.002 323.467 222.729 322.954 223.281C322.712 223.545 322.418 223.757 322.091 223.902C321.763 224.047 321.409 224.123 321.051 224.124H315.066C314.329 224.099 313.632 223.782 313.127 223.243C312.622 222.704 312.351 221.987 312.373 221.249C312.37 220.665 312.541 220.093 312.864 219.607C314.188 219.42 315.524 219.328 316.862 219.332C319.105 219.324 321.34 219.582 323.523 220.099C323.671 220.464 323.746 220.855 323.744 221.249Z" fill="white"/>
<path d="M290.23 187.581C291.882 187.581 293.222 186.24 293.222 184.585C293.222 182.931 291.882 181.59 290.23 181.59C288.577 181.59 287.237 182.931 287.237 184.585C287.237 186.24 288.577 187.581 290.23 187.581Z" fill="white"/>
<path d="M345.888 187.581C347.541 187.581 348.88 186.24 348.88 184.585C348.88 182.931 347.541 181.59 345.888 181.59C344.235 181.59 342.896 182.931 342.896 184.585C342.896 186.24 344.235 187.581 345.888 187.581Z" fill="white"/>
<path opacity="0.3" d="M348.88 215.737C350.533 215.737 351.873 214.396 351.873 212.742C351.873 211.088 350.533 209.747 348.88 209.747C347.228 209.747 345.888 211.088 345.888 212.742C345.888 214.396 347.228 215.737 348.88 215.737Z" fill="#6C63FF"/>
<path opacity="0.3" d="M275.866 215.737C277.519 215.737 278.858 214.396 278.858 212.742C278.858 211.088 277.519 209.747 275.866 209.747C274.213 209.747 272.874 211.088 272.874 212.742C272.874 214.396 274.213 215.737 275.866 215.737Z" fill="#6C63FF"/>
</g>
<defs>
<filter id="filter0_d" x="0" y="0" width="652" height="358" filterUnits="userSpaceOnUse" color-interpolation-filters="sRGB">
<feFlood flood-opacity="0" result="BackgroundImageFix"/>
<feColorMatrix in="SourceAlpha" type="matrix" values="0 0 0 0 0 0 0 0 0 0 0 0 0 0 0 0 0 0 127 0"/>
<feOffset dx="5" dy="4"/>
<feGaussianBlur stdDeviation="2"/>
<feColorMatrix type="matrix" values="0 0 0 0 0 0 0 0 0 0 0 0 0 0 0 0 0 0 0.5 0"/>
<feBlend mode="normal" in2="BackgroundImageFix" result="effect1_dropShadow"/>
<feBlend mode="normal" in="SourceGraphic" in2="effect1_dropShadow" result="shape"/>
</filter>
<clipPath id="clip0">
<rect width="643" height="350" fill="white"/>
</clipPath>
</defs>
</svg>
