<svg width="448" height="377" viewBox="0 0 448 377" fill="none" xmlns="http://www.w3.org/2000/svg">
<g clip-path="url(#clip0)" filter="url(#filter0_d)">
<path d="M313.842 40.2968C276.346 40.1246 242.646 56.4776 219.5 82.5306C196.354 56.4776 162.653 40.1246 125.157 40.2968C54.7476 40.6201 -1.36743 98.5565 0.0253789 169.413C1.3762 238.135 57.145 293.425 125.744 293.425C128.405 293.425 131.047 293.343 133.668 293.178C190.833 289.598 248.167 289.598 305.332 293.178C307.952 293.342 310.594 293.424 313.256 293.425C381.855 293.425 437.624 238.135 438.975 169.413C440.367 98.5565 384.252 40.6201 313.842 40.2968Z" fill="#1A3C5B"/>
<path d="M290.04 3.28882C288.159 3.395 286.345 4.02273 284.802 5.10162C283.258 6.1805 282.045 7.66789 281.3 9.39701C279.114 14.6774 281.928 20.8799 286.153 24.7304C290.377 28.5809 295.803 30.7819 300.734 33.6748C307.356 37.5605 313.307 42.9545 316.62 49.8786C319.934 56.8026 320.286 65.3795 316.391 71.9943C312.776 78.134 306.203 81.8086 299.933 85.1975" stroke="#3F3D56" stroke-miterlimit="10"/>
<path d="M295.608 7.49687C299.872 7.49687 303.329 5.81864 303.329 3.74844C303.329 1.67823 299.872 0 295.608 0C291.344 0 287.887 1.67823 287.887 3.74844C287.887 5.81864 291.344 7.49687 295.608 7.49687Z" fill="#57B894"/>
<path d="M301.785 32.1924C306.049 32.1924 309.506 30.5142 309.506 28.444C309.506 26.3738 306.049 24.6956 301.785 24.6956C297.521 24.6956 294.064 26.3738 294.064 28.444C294.064 30.5142 297.521 32.1924 301.785 32.1924Z" fill="#57B894"/>
<path d="M287.666 36.1614C291.93 36.1614 295.387 34.4832 295.387 32.413C295.387 30.3428 291.93 28.6646 287.666 28.6646C283.402 28.6646 279.945 30.3428 279.945 32.413C279.945 34.4832 283.402 36.1614 287.666 36.1614Z" fill="#57B894"/>
<path d="M309.726 56.888C313.991 56.888 317.448 55.2098 317.448 53.1395C317.448 51.0693 313.991 49.3911 309.726 49.3911C305.462 49.3911 302.005 51.0693 302.005 53.1395C302.005 55.2098 305.462 56.888 309.726 56.888Z" fill="#57B894"/>
<path d="M325.169 56.888C329.433 56.888 332.89 55.2098 332.89 53.1395C332.89 51.0693 329.433 49.3911 325.169 49.3911C320.904 49.3911 317.448 51.0693 317.448 53.1395C317.448 55.2098 320.904 56.888 325.169 56.888Z" fill="#57B894"/>
<path d="M330.843 126.233C329.111 125.493 327.207 125.249 325.344 125.53C323.481 125.811 321.734 126.605 320.297 127.823C315.992 131.582 315.755 138.389 317.827 143.714C319.9 149.04 323.782 153.422 326.913 158.204C331.118 164.626 334.05 172.101 333.94 179.776C333.83 187.45 330.332 195.29 323.902 199.486C317.934 203.38 310.411 203.752 303.288 204.004" stroke="#3F3D56" stroke-miterlimit="10"/>
<path d="M342.543 132.548C343.463 130.693 341.113 127.654 337.293 125.76C333.473 123.866 329.63 123.834 328.709 125.688C327.789 127.543 330.14 130.582 333.96 132.476C337.78 134.37 341.622 134.402 342.543 132.548Z" fill="#57B894"/>
<path d="M337.096 157.414C338.017 155.56 335.666 152.521 331.846 150.627C328.026 148.733 324.183 148.701 323.263 150.555C322.342 152.41 324.693 155.449 328.513 157.343C332.333 159.237 336.176 159.269 337.096 157.414Z" fill="#57B894"/>
<path d="M322.684 154.698C323.604 152.844 321.254 149.805 317.434 147.911C313.614 146.017 309.771 145.985 308.85 147.839C307.93 149.694 310.281 152.733 314.101 154.627C317.921 156.521 321.764 156.553 322.684 154.698Z" fill="#57B894"/>
<path d="M333.231 183.065C334.151 181.21 331.801 178.171 327.981 176.277C324.161 174.383 320.318 174.351 319.397 176.206C318.477 178.06 320.828 181.099 324.648 182.993C328.468 184.887 332.311 184.919 333.231 183.065Z" fill="#57B894"/>
<path d="M347.065 189.924C347.985 188.069 345.634 185.031 341.814 183.136C337.994 181.242 334.151 181.21 333.231 183.065C332.311 184.919 334.661 187.958 338.481 189.852C342.301 191.746 346.144 191.779 347.065 189.924Z" fill="#57B894"/>
<path d="M131.481 161.584C132.817 160.256 134.496 159.327 136.331 158.9C138.166 158.474 140.083 158.566 141.868 159.168C147.259 161.072 149.994 167.31 150.036 173.024C150.078 178.738 148.089 184.244 146.947 189.843C145.413 197.363 145.45 205.393 148.388 212.484C151.326 219.575 157.474 225.57 165 227.095C171.985 228.511 179.113 226.079 185.825 223.683" stroke="#3F3D56" stroke-miterlimit="10"/>
<path d="M130.891 168.536C133.741 165.365 134.803 161.674 133.262 160.29C131.722 158.906 128.162 160.355 125.312 163.525C122.462 166.696 121.401 170.387 122.941 171.771C124.482 173.155 128.041 171.706 130.891 168.536Z" fill="#57B894"/>
<path d="M145.142 189.634C147.992 186.463 149.053 182.772 147.512 181.388C145.972 180.004 142.412 181.453 139.562 184.623C136.712 187.794 135.651 191.485 137.191 192.869C138.732 194.253 142.291 192.804 145.142 189.634Z" fill="#57B894"/>
<path d="M157.531 181.789C160.381 178.619 161.443 174.927 159.902 173.544C158.362 172.16 154.802 173.608 151.952 176.779C149.102 179.949 148.041 183.641 149.581 185.025C151.122 186.408 154.681 184.96 157.531 181.789Z" fill="#57B894"/>
<path d="M158.212 212.044C161.062 208.873 162.124 205.181 160.583 203.798C159.042 202.414 155.483 203.863 152.633 207.033C149.783 210.203 148.721 213.895 150.262 215.279C151.803 216.662 155.362 215.214 158.212 212.044Z" fill="#57B894"/>
<path d="M147.891 223.524C150.741 220.354 151.803 216.662 150.262 215.279C148.721 213.895 145.162 215.344 142.312 218.514C139.462 221.684 138.401 225.376 139.941 226.76C141.482 228.143 145.041 226.695 147.891 223.524Z" fill="#57B894"/>
<path d="M309.056 110.671L307.843 119.566L300.342 174.452L288.059 264.335L284.984 286.839C284.749 288.557 283.9 290.132 282.593 291.272C281.286 292.412 279.61 293.04 277.876 293.04H195.966C194.234 293.04 192.561 292.414 191.254 291.278C189.948 290.142 189.097 288.571 188.858 286.857L185.73 264.335L173.24 174.452L165.607 119.527L164.38 110.689C164.239 109.674 164.316 108.64 164.608 107.658C164.901 106.675 165.4 105.766 166.073 104.993C166.747 104.22 167.578 103.6 168.511 103.175C169.444 102.751 170.458 102.531 171.484 102.531H301.948C302.972 102.531 303.984 102.751 304.916 103.174C305.848 103.598 306.679 104.216 307.352 104.987C308.025 105.758 308.526 106.665 308.82 107.645C309.113 108.625 309.194 109.657 309.056 110.671Z" fill="#64FFDA"/>
<path d="M293.728 78.717H180.127C176.165 78.717 172.953 81.9274 172.953 85.8876V95.3601C172.953 99.3203 176.165 102.531 180.127 102.531H293.728C297.69 102.531 300.902 99.3203 300.902 95.3601V85.8876C300.902 81.9274 297.69 78.717 293.728 78.717Z" fill="#2F2E41"/>
<path opacity="0.1" d="M300.902 89.9712V95.3601C300.902 97.2619 300.147 99.0857 298.801 100.43C297.456 101.775 295.631 102.531 293.728 102.531H180.127C178.224 102.531 176.399 101.775 175.054 100.43C173.709 99.0857 172.953 97.2619 172.953 95.3601V89.9844C215.507 94.0372 258.35 94.0327 300.902 89.9712Z" fill="black"/>
<path d="M202.734 170.664C213.456 170.664 222.147 161.977 222.147 151.261C222.147 140.544 213.456 131.857 202.734 131.857C192.013 131.857 183.321 140.544 183.321 151.261C183.321 161.977 192.013 170.664 202.734 170.664Z" fill="#2F2E41"/>
<path d="M271.562 170.664C282.284 170.664 290.975 161.977 290.975 151.261C290.975 140.544 282.284 131.857 271.562 131.857C260.841 131.857 252.149 140.544 252.149 151.261C252.149 161.977 260.841 170.664 271.562 170.664Z" fill="#2F2E41"/>
<path d="M201.852 156.552C204.776 156.552 207.146 154.183 207.146 151.26C207.146 148.338 204.776 145.969 201.852 145.969C198.928 145.969 196.557 148.338 196.557 151.26C196.557 154.183 198.928 156.552 201.852 156.552Z" fill="#EFEFEF"/>
<path d="M209.793 143.323C211.012 143.323 211.999 142.335 211.999 141.118C211.999 139.9 211.012 138.913 209.793 138.913C208.575 138.913 207.587 139.9 207.587 141.118C207.587 142.335 208.575 143.323 209.793 143.323Z" fill="#EFEFEF"/>
<path d="M271.562 156.552C274.486 156.552 276.857 154.183 276.857 151.26C276.857 148.338 274.486 145.969 271.562 145.969C268.638 145.969 266.268 148.338 266.268 151.26C266.268 154.183 268.638 156.552 271.562 156.552Z" fill="#EFEFEF"/>
<path d="M279.504 143.323C280.722 143.323 281.71 142.335 281.71 141.118C281.71 139.9 280.722 138.913 279.504 138.913C278.286 138.913 277.298 139.9 277.298 141.118C277.298 142.335 278.286 143.323 279.504 143.323Z" fill="#EFEFEF"/>
<path opacity="0.1" d="M308.648 107.161H308.649C308.647 107.156 308.644 107.151 308.642 107.145C308.453 106.652 308.21 106.18 307.918 105.74L307.917 105.739C307.831 105.609 307.739 105.484 307.645 105.36C307.613 105.318 307.581 105.278 307.548 105.237C307.273 104.892 306.967 104.573 306.634 104.284C306.559 104.219 306.484 104.156 306.407 104.094C306.321 104.025 306.234 103.957 306.144 103.892C306.032 103.811 305.916 103.734 305.799 103.659C305.706 103.6 305.614 103.542 305.519 103.487C305.371 103.402 305.221 103.322 305.068 103.247C304.995 103.212 304.92 103.179 304.846 103.146C304.699 103.081 304.55 103.02 304.398 102.965C304.337 102.943 304.277 102.919 304.215 102.898C304.005 102.828 303.79 102.768 303.571 102.717C303.518 102.705 303.463 102.696 303.409 102.685C303.23 102.648 303.048 102.617 302.864 102.594C302.798 102.585 302.732 102.577 302.664 102.57C302.429 102.547 302.191 102.531 301.949 102.531L301.948 102.531H171.484C170.459 102.534 169.448 102.756 168.516 103.182C167.585 103.608 166.755 104.228 166.082 105C165.41 105.772 164.91 106.679 164.616 107.66C164.323 108.641 164.242 109.673 164.38 110.687L164.587 112.178L165.607 119.527L165.608 119.527L173.24 174.452H173.24L183.259 246.55L188.859 286.856C189.098 288.57 189.948 290.14 191.254 291.277C192.56 292.414 194.233 293.04 195.965 293.04H199.852C199.66 292.539 199.524 292.018 199.448 291.486L195.676 264.335H288.059L300.342 174.452H183.186L175.676 120.406C219.672 123.972 263.895 123.691 307.843 119.566L309.056 110.671C309.217 109.486 309.077 108.278 308.648 107.161Z" fill="black"/>
<path d="M319.319 114.438C264.554 120.412 209.301 120.412 154.537 114.438C152.634 114.438 150.809 113.682 149.464 112.338C148.119 110.993 147.363 109.169 147.363 107.268V97.7941C147.363 95.8925 148.119 94.0687 149.464 92.7241C150.809 91.3794 152.634 90.624 154.537 90.624C209.258 97.3489 264.597 97.3489 319.319 90.624C321.221 90.624 323.046 91.3794 324.391 92.7241C325.736 94.0687 326.492 95.8925 326.492 97.7941V107.268C326.492 109.169 325.736 110.993 324.391 112.338C323.046 113.682 321.221 114.438 319.319 114.438Z" fill="#2F2E41"/>
<path d="M291.432 261.068H181.137C180.147 261.068 179.189 260.715 178.436 260.072C177.683 259.429 177.184 258.539 177.029 257.562L165.113 182.529C165.019 181.936 165.054 181.329 165.217 180.75C165.381 180.171 165.667 179.635 166.058 179.178C166.448 178.721 166.933 178.354 167.479 178.102C168.026 177.85 168.62 177.72 169.221 177.72H304.142C304.747 177.72 305.344 177.852 305.893 178.107C306.442 178.361 306.928 178.732 307.319 179.194C307.709 179.656 307.994 180.198 308.154 180.781C308.314 181.364 308.344 181.975 308.243 182.572L295.533 257.604C295.369 258.573 294.867 259.452 294.116 260.086C293.365 260.72 292.414 261.068 291.432 261.068Z" fill="#2F2E41"/>
<path d="M278.881 207.584C279.401 207.679 279.886 207.913 280.285 208.26C280.683 208.607 280.98 209.056 281.145 209.558C281.31 210.06 281.337 210.597 281.222 211.112C281.107 211.628 280.855 212.104 280.493 212.488C273.495 219.944 256.528 235.49 236.707 235.49C216.886 235.49 199.919 219.944 192.921 212.488C192.559 212.104 192.307 211.628 192.192 211.112C192.077 210.597 192.104 210.06 192.269 209.558C192.434 209.056 192.731 208.607 193.129 208.26C193.528 207.913 194.013 207.679 194.533 207.584C222.415 202.457 250.999 202.457 278.881 207.584H278.881Z" fill="#FF2F2F"/>
<path d="M258.767 212.234C259.304 212.32 259.807 212.553 260.219 212.907C260.632 213.261 260.938 213.723 261.104 214.241C261.269 214.759 261.288 215.313 261.157 215.841C261.027 216.369 260.752 216.85 260.364 217.231C255.625 221.849 246.805 228.813 236.707 228.813C226.609 228.813 217.789 221.849 213.05 217.231C212.662 216.85 212.387 216.369 212.257 215.841C212.126 215.313 212.145 214.759 212.31 214.241C212.476 213.723 212.782 213.261 213.195 212.907C213.607 212.553 214.11 212.32 214.648 212.234C229.254 209.809 244.16 209.809 258.767 212.234Z" fill="#EFEFEF"/>
<path d="M55.8128 293.26H360.686" stroke="#3F3D56" stroke-miterlimit="10"/>
<path d="M81.0285 252.444V264.849L87.4019 272.226C87.4019 272.226 90.0855 271.22 90.0855 264.514L91.0918 254.791L81.0285 252.444Z" fill="#EFEFEF"/>
<path d="M87.4019 264.849C87.4019 264.849 77.0032 257.808 76.6677 255.461C76.3323 253.114 61.5728 242.385 63.9209 249.091C66.269 255.797 73.6487 258.814 73.6487 258.814C73.6487 258.814 79.3513 274.237 84.3829 273.902C89.4146 273.567 89.4146 267.196 87.4019 264.849Z" fill="#EFEFEF"/>
<path d="M93.4398 340.288L94.4462 346.323L89.0789 344.982V340.288H93.4398Z" fill="#3F3D56"/>
<path d="M92.4336 343.641C92.4336 343.641 86.2304 339.967 85.9775 341.636C85.7247 343.305 83.0412 349.676 81.6994 350.346C80.3576 351.017 78.6804 358.393 81.6994 358.058C84.0376 357.798 92.6137 353.315 96.3625 351.306C96.8239 351.057 97.1725 350.641 97.3363 350.144C97.5002 349.646 97.4668 349.104 97.2432 348.631C97.0234 348.224 96.8717 347.784 96.7943 347.329C96.7943 346.658 92.4336 343.641 92.4336 343.641Z" fill="#2F2E41"/>
<path d="M95.4526 275.578C95.4526 275.578 70.9652 286.978 73.3133 295.695C75.6614 304.412 84.383 341.293 84.383 341.293C84.383 341.293 94.1108 343.64 94.7817 341.293C95.4526 338.946 88.4083 302.401 89.0792 301.06C89.7501 299.718 102.161 291.001 102.161 291.001L127.655 280.272L116.921 270.214L95.4526 275.578Z" fill="#2F2E41"/>
<path d="M77.0031 342.299L73.984 350.011L79.3512 352.358L82.7057 346.322L77.0031 342.299Z" fill="#3F3D56"/>
<path d="M95.1171 220.592C95.1171 220.592 98.1361 224.616 95.788 226.627C93.4399 228.639 95.1171 236.015 95.1171 236.015L98.1361 244.397L110.212 242.05V228.304L109.541 221.598C109.541 221.598 103.503 215.898 102.832 211.54C102.161 207.181 95.1171 220.592 95.1171 220.592Z" fill="#EFEFEF"/>
<path opacity="0.1" d="M95.1171 220.592C95.1171 220.592 98.1361 224.616 95.788 226.627C93.4399 228.639 95.1171 236.015 95.1171 236.015L98.1361 244.397L110.212 242.05V228.304L109.541 221.598C109.541 221.598 103.503 215.898 102.832 211.54C102.161 207.181 95.1171 220.592 95.1171 220.592Z" fill="#EFEFEF"/>
<path d="M115.244 272.896C115.244 272.896 99.4779 290.331 99.4779 291.001C99.4779 291.672 91.0918 305.418 91.0918 305.418L74.6551 341.964C74.6551 341.964 81.0285 350.681 83.712 350.011C86.3956 349.34 105.516 310.448 105.516 310.448C105.516 310.448 108.87 301.73 117.927 299.719C126.984 297.707 134.029 290.666 130.674 282.619C127.32 274.572 115.244 272.896 115.244 272.896Z" fill="#2F2E41"/>
<path d="M95.1171 222.939C101.045 222.939 105.851 218.135 105.851 212.21C105.851 206.285 101.045 201.481 95.1171 201.481C89.1888 201.481 84.3829 206.285 84.3829 212.21C84.3829 218.135 89.1888 222.939 95.1171 222.939Z" fill="#EFEFEF"/>
<path d="M95.4526 229.645C95.4526 229.645 96.7943 237.356 98.1361 238.027C99.4779 238.697 100.484 241.044 103.503 237.692C106.522 234.339 109.206 227.633 109.206 227.633L119.605 240.374L120.611 275.578C120.611 275.578 108.87 272.561 105.18 275.578C101.491 278.596 93.4399 278.261 93.4399 278.261L95.1171 271.555L93.7754 260.155L94.1108 249.762L94.4463 242.385L95.4526 229.645Z" fill="#F2F2F2"/>
<path d="M96.6343 224.001C96.6343 224.001 92.0981 226.292 91.7627 227.633C91.4272 228.974 85.3893 231.656 85.3893 231.656C85.3893 231.656 83.0412 234.003 83.0412 235.344C83.0412 236.686 91.0918 252.109 91.0918 252.109C91.0918 252.109 92.769 262.502 92.0981 264.514C91.4273 266.526 93.4399 274.237 93.4399 274.237L89.4146 278.931H93.1045C93.1045 278.931 97.1298 276.919 97.1298 275.914C97.1298 274.908 96.4589 267.867 96.1235 264.849C95.788 261.832 95.788 251.103 96.4589 247.415C97.1298 243.726 96.7943 234.003 96.7943 231.656C96.7943 229.309 96.6343 224.001 96.6343 224.001Z" fill="#3F3D56"/>
<path d="M107.025 218.91C107.025 218.91 108.535 219.251 112.896 220.592C117.256 221.933 123.965 223.945 126.313 226.627C127.961 228.611 129.421 230.743 130.674 232.998L129.332 257.138C129.332 257.138 132.016 262.167 131.68 264.849C131.345 267.532 128.661 267.867 130.674 273.567C132.687 279.266 136.712 284.296 133.022 284.966C129.332 285.637 119.604 283.29 115.244 284.631C110.883 285.972 105.851 279.602 105.851 279.602C105.851 279.602 112.56 280.272 111.554 277.59C110.547 274.908 99.4778 244.732 101.826 238.027C104.174 231.321 107.025 218.91 107.025 218.91Z" fill="#3F3D56"/>
<path d="M84.7184 233.668L83.0411 235.009C83.0411 235.009 78.3449 251.773 79.6867 253.45C81.0285 255.126 91.7627 258.814 92.4336 256.467C93.1045 254.12 84.7184 233.668 84.7184 233.668Z" fill="#3F3D56"/>
<path d="M134.364 245.403C134.364 245.403 139.396 259.82 139.396 263.843C139.396 267.867 138.725 291.336 138.725 291.336C138.725 291.336 138.389 301.395 131.345 297.371C124.301 293.348 131.345 290.666 131.345 290.666C131.345 290.666 131.01 264.179 128.326 260.491C125.642 256.802 124.636 251.438 124.636 251.438L134.364 245.403Z" fill="#EFEFEF"/>
<path d="M79.3513 349.676C79.3513 349.676 74.3196 346.993 73.3133 349.005C72.307 351.017 66.9399 362.081 67.6108 363.422C68.2817 364.763 71.9715 370.128 76.3323 368.787C80.6931 367.445 81.0285 360.405 81.0285 360.405L81.3639 352.358L79.3513 349.676Z" fill="#2F2E41"/>
<path d="M93.0152 209.618C93.7546 209.966 94.6318 210.174 95.0964 210.846C95.4407 211.344 95.4749 211.991 95.7261 212.542C96.0003 213.087 96.4723 213.507 97.0457 213.717C97.6192 213.927 98.251 213.91 98.8125 213.67C98.9497 213.002 99.3382 212.412 99.8978 212.022C100.181 211.837 100.515 211.746 100.853 211.765C101.191 211.783 101.514 211.91 101.775 212.125C102.466 212.784 102.221 213.933 102.544 214.832C102.847 215.464 103.263 216.035 103.773 216.517C104.507 217.363 105.092 218.356 105.976 219.045C106.861 219.734 108.201 220.033 109.08 219.336C109.818 218.751 109.972 217.671 109.792 216.746C109.613 215.821 109.168 214.969 108.917 214.061C108.102 211.11 109.402 207.96 108.999 204.925C108.484 201.036 105.177 197.964 101.486 196.631C99.9502 196.006 98.2686 195.828 96.6356 196.117C94.9476 196.494 93.5056 197.568 91.8889 198.183C90.16 198.839 88.28 198.954 86.4708 199.338C84.6615 199.722 82.7997 200.465 81.7497 201.987C81.0175 203.048 80.7658 204.367 80.1589 205.505C79.4603 206.803 78.3288 207.817 76.9607 208.369L78.8732 208.26C78.5526 209.113 78.0297 209.876 77.3494 210.483C78.2462 210.665 79.1785 210.542 79.997 210.133C79.9822 210.526 79.887 210.911 79.7172 211.266C79.5474 211.621 79.3067 211.937 79.0099 212.195C80.4816 212.151 82.0335 212.083 83.2771 211.295C83.8862 210.909 84.383 210.371 84.9561 209.934C86.1779 209.001 87.6937 208.559 89.1714 208.135C89.9473 207.912 90.8812 207.603 91.5829 208.102C92.1672 208.517 92.2595 209.263 93.0152 209.618Z" fill="#2F2E41"/>
<path d="M125.642 228.974L130.674 232.998L137.383 248.42C137.383 248.42 127.991 255.797 125.642 254.791C123.294 253.785 119.269 236.015 119.269 236.015L125.642 228.974Z" fill="#3F3D56"/>
<path d="M75.6273 244.551L75.5432 245.167L75.0236 248.97L74.1725 255.198L73.9594 256.757C73.9432 256.876 73.8843 256.985 73.7938 257.064C73.7032 257.143 73.5871 257.186 73.4669 257.186H67.7916C67.6716 257.186 67.5557 257.143 67.4651 257.064C67.3746 256.986 67.3157 256.877 67.2991 256.758L67.0824 255.198L66.217 248.97L65.6881 245.164L65.6031 244.552C65.5933 244.482 65.5987 244.41 65.6189 244.342C65.6392 244.274 65.6738 244.211 65.7204 244.157C65.7671 244.104 65.8247 244.061 65.8893 244.031C65.954 244.002 66.0242 243.987 66.0953 243.987H75.1348C75.2058 243.987 75.2759 244.002 75.3405 244.031C75.4051 244.061 75.4626 244.103 75.5093 244.157C75.5559 244.21 75.5906 244.273 75.6109 244.341C75.6313 244.409 75.6369 244.48 75.6273 244.551Z" fill="#6C63FF"/>
<path d="M74.5653 242.337H66.6942C66.4197 242.337 66.1971 242.559 66.1971 242.833V243.49C66.1971 243.764 66.4197 243.987 66.6942 243.987H74.5653C74.8399 243.987 75.0624 243.764 75.0624 243.49V242.833C75.0624 242.559 74.8399 242.337 74.5653 242.337Z" fill="#2F2E41"/>
<path d="M76.3384 244.812C72.5439 245.226 68.7156 245.226 64.9211 244.812C64.8558 244.812 64.7912 244.799 64.7309 244.774C64.6706 244.749 64.6158 244.712 64.5696 244.666C64.5235 244.62 64.4869 244.565 64.4619 244.505C64.4369 244.445 64.4241 244.38 64.4241 244.315V243.659C64.4241 243.527 64.4764 243.401 64.5696 243.307C64.6628 243.214 64.7893 243.162 64.9211 243.162C68.7126 243.628 72.5469 243.628 76.3384 243.162C76.4702 243.162 76.5967 243.214 76.6899 243.307C76.7831 243.401 76.8355 243.527 76.8355 243.659V244.315C76.8355 244.447 76.7831 244.573 76.6899 244.666C76.5967 244.76 76.4702 244.812 76.3384 244.812Z" fill="#2F2E41"/>
<path d="M74.4062 254.971H66.7642C66.6956 254.971 66.6292 254.947 66.577 254.902C66.5249 254.858 66.4903 254.796 66.4795 254.728L65.6539 249.53C65.6474 249.488 65.6499 249.446 65.6612 249.406C65.6725 249.366 65.6923 249.329 65.7194 249.297C65.7464 249.266 65.78 249.24 65.8179 249.223C65.8557 249.205 65.8969 249.196 65.9386 249.196H75.2868C75.3288 249.196 75.3702 249.205 75.4082 249.223C75.4462 249.241 75.4799 249.266 75.507 249.298C75.534 249.33 75.5538 249.368 75.5648 249.408C75.5759 249.449 75.578 249.491 75.571 249.532L74.6903 254.731C74.679 254.798 74.6442 254.859 74.5922 254.903C74.5402 254.947 74.4743 254.971 74.4062 254.971Z" fill="#2F2E41"/>
</g>
<defs>
<filter id="filter0_d" x="0" y="0" width="448" height="377" filterUnits="userSpaceOnUse" color-interpolation-filters="sRGB">
<feFlood flood-opacity="0" result="BackgroundImageFix"/>
<feColorMatrix in="SourceAlpha" type="matrix" values="0 0 0 0 0 0 0 0 0 0 0 0 0 0 0 0 0 0 127 0"/>
<feOffset dx="5" dy="4"/>
<feGaussianBlur stdDeviation="2"/>
<feColorMatrix type="matrix" values="0 0 0 0 0 0 0 0 0 0 0 0 0 0 0 0 0 0 0.5 0"/>
<feBlend mode="normal" in2="BackgroundImageFix" result="effect1_dropShadow"/>
<feBlend mode="normal" in="SourceGraphic" in2="effect1_dropShadow" result="shape"/>
</filter>
<clipPath id="clip0">
<rect width="439" height="369" fill="white"/>
</clipPath>
</defs>
</svg>
